<?xml version="1.0" standalone="no"?>
<!DOCTYPE svg PUBLIC "-//W3C//DTD SVG 20010904//EN"
 "http://www.w3.org/TR/2001/REC-SVG-20010904/DTD/svg10.dtd">
<svg version="1.0" xmlns="http://www.w3.org/2000/svg"
 width="196.000000pt" height="196.000000pt" viewBox="0 0 196.000000 196.000000"
 preserveAspectRatio="xMidYMid meet">
<g transform="translate(0.000000,196.000000) scale(0.100000,-0.100000)"
fill="#000000" stroke="none">
<path d="M609 1771 c-117 -64 -164 -226 -116 -398 55 -196 227 -287 348 -185
109 91 121 311 27 477 -60 107 -173 153 -259 106z m89 -72 c-18 -10 -25 -39
-9 -39 5 0 14 7 21 15 7 8 19 15 27 15 13 0 13 -3 -1 -24 -12 -19 -13 -27 -4
-32 7 -4 14 -2 16 4 5 15 52 16 52 2 0 -5 -6 -9 -12 -7 -7 1 -13 -4 -12 -10 3
-38 5 -40 30 -35 24 4 25 3 13 -15 -10 -17 -9 -30 6 -74 22 -68 32 -179 16
-179 -6 0 -11 5 -11 11 0 7 -7 17 -15 23 -8 6 -19 36 -24 66 -9 55 -9 55 -10
-22 -1 -46 3 -78 9 -78 5 0 19 -8 30 -17 19 -17 19 -17 0 -35 -13 -13 -28 -16
-49 -12 -27 6 -31 4 -31 -15 0 -23 -10 -27 -28 -9 -8 8 -8 15 -1 24 8 10 3 12
-28 8 -30 -4 -35 -3 -20 6 9 6 17 18 17 25 0 17 -16 20 -25 5 -3 -5 -12 -7
-20 -3 -8 3 -15 0 -15 -6 0 -6 -4 -11 -10 -11 -5 0 -10 7 -10 15 0 8 4 15 8
15 9 0 7 108 -3 140 -3 11 -11 20 -16 20 -12 0 -11 -7 1 -30 12 -22 3 -70 -12
-70 -6 0 -7 7 -4 16 4 9 1 32 -6 52 -10 27 -10 36 -1 39 7 3 10 17 6 38 -3 22
0 41 11 56 9 13 16 36 16 52 0 24 3 27 14 18 10 -8 16 -9 21 -1 3 5 1 10 -4
10 -6 0 -11 5 -11 11 0 6 7 9 15 5 9 -3 15 0 15 9 0 16 27 34 50 34 12 0 11
-2 -2 -10z"/>
<path d="M775 1290 c-3 -5 -4 -14 0 -20 8 -13 35 -1 35 16 0 16 -26 19 -35 4z"/>
<path d="M1194 1773 c-80 -46 -141 -128 -164 -223 -14 -57 -15 -217 -1 -235 5
-5 11 -21 14 -35 10 -40 73 -106 119 -125 82 -32 173 5 236 97 34 50 63 114
55 122 -3 3 0 12 7 21 8 9 12 47 12 106 0 83 -3 97 -34 157 -43 85 -85 120
-158 127 -42 4 -62 1 -86 -12z m86 -74 c0 -7 11 -8 30 -4 33 7 43 -11 13 -22
-23 -9 -48 -33 -34 -33 5 0 13 5 16 10 11 18 26 -1 19 -23 -5 -18 -4 -20 7 -9
17 16 36 15 42 -1 6 -17 -13 -129 -25 -143 -5 -7 -5 -28 0 -50 4 -22 5 -55 1
-74 -5 -19 -6 -42 -3 -51 6 -22 -24 -48 -36 -30 -11 19 -64 5 -56 -14 7 -20
-27 -20 -43 -1 -7 8 -27 17 -46 20 -38 7 -46 22 -17 29 15 4 14 6 -5 12 -16 5
-23 18 -28 48 -4 23 -12 48 -18 55 -7 9 -7 16 2 25 9 9 14 9 20 -2 6 -10 10
-10 16 -1 4 6 2 17 -4 23 -12 12 -15 75 -5 101 3 9 17 16 29 16 18 0 24 6 27
27 2 19 10 29 28 34 14 4 19 7 13 8 -7 1 -13 8 -13 16 0 18 12 19 28 3 6 -6
15 -8 19 -4 5 4 -3 16 -16 27 -23 19 -23 19 8 19 17 0 31 -5 31 -11z"/>
<path d="M1228 1299 c-12 -12 -14 -19 -5 -19 14 1 47 24 47 34 0 12 -25 4 -42
-15z"/>
<path d="M1290 1310 c0 -5 9 -14 19 -19 16 -9 18 -8 14 9 -5 20 -33 29 -33 10z"/>
<path d="M175 1372 c-204 -72 -173 -434 50 -580 43 -29 56 -32 124 -33 58 -1
141 43 141 74 0 6 7 18 16 28 22 24 34 131 22 203 -17 109 -95 229 -184 281
-47 27 -130 41 -169 27z m85 -99 c39 -28 87 -42 99 -30 8 8 11 5 11 -10 0 -12
5 -25 10 -28 6 -3 10 -16 10 -27 0 -12 7 -29 16 -39 9 -10 19 -40 21 -66 3
-26 10 -54 15 -60 7 -9 5 -15 -7 -19 -14 -6 -15 -15 -10 -54 6 -46 5 -48 -27
-67 -41 -24 -128 -32 -109 -10 8 10 8 22 2 38 -10 24 -10 24 -10 -3 -1 -34
-13 -36 -30 -5 -7 12 -21 27 -33 32 -27 13 -25 29 4 36 23 5 23 5 2 17 -13 7
-25 7 -30 2 -11 -11 -54 -2 -54 11 0 5 5 9 10 9 6 0 10 9 10 20 0 11 -5 20
-11 20 -8 0 -8 4 1 15 14 17 4 39 -16 31 -8 -3 -14 1 -14 10 0 8 7 17 16 21
13 5 12 9 -8 31 -23 25 -23 25 0 19 22 -5 23 -5 8 18 -20 30 -20 41 -2 26 11
-9 16 -9 22 0 4 7 2 15 -4 17 -7 2 -12 10 -12 19 0 10 6 12 19 8 14 -4 23 0
31 15 13 25 38 26 70 3z"/>
<path d="M1647 1366 c-176 -64 -289 -341 -205 -504 101 -196 363 -104 450 158
32 96 24 205 -20 272 -52 79 -135 106 -225 74z m131 -109 c12 -11 22 -26 22
-34 0 -7 7 -13 15 -13 9 0 15 -9 15 -21 0 -15 -5 -19 -15 -15 -21 8 -19 -8 5
-29 24 -21 26 -45 5 -45 -15 0 -20 -16 -16 -60 2 -25 2 -25 -19 -2 -26 28 -34
24 -22 -9 7 -17 4 -34 -10 -61 -23 -44 -90 -106 -96 -89 -5 14 -32 15 -32 1 0
-5 -7 -10 -15 -10 -8 0 -15 5 -15 11 0 6 -8 8 -19 4 -11 -3 -22 -1 -26 5 -4 6
-13 9 -21 6 -17 -6 -18 6 -3 21 9 9 8 18 -4 36 -19 29 -18 74 3 87 12 8 12 10
-3 16 -18 7 -24 44 -7 44 6 0 10 10 10 21 0 12 17 37 38 56 28 27 32 34 15 29
-20 -6 -21 -5 -10 18 14 29 27 34 27 10 0 -11 8 -7 28 14 36 38 112 43 150 9z"/>
<path d="M1792 1118 c-14 -14 -16 -48 -3 -48 9 0 25 49 18 56 -2 2 -9 -2 -15
-8z"/>
<path d="M1600 1087 c0 -9 -4 -17 -10 -17 -5 0 -10 -9 -10 -20 0 -12 -12 -32
-27 -45 -16 -13 -24 -27 -20 -32 5 -4 20 5 34 21 18 22 27 26 33 16 5 -8 10 2
15 30 4 26 3 46 -4 53 -8 8 -11 6 -11 -6z"/>
<path d="M907 1090 c-77 -13 -160 -92 -241 -228 -47 -79 -89 -119 -175 -172
-153 -92 -195 -150 -196 -270 0 -60 5 -85 25 -125 26 -52 112 -127 135 -118 7
2 16 0 20 -6 15 -26 115 -12 280 40 211 65 253 64 483 -15 118 -41 206 -44
275 -12 204 97 194 359 -19 486 -120 71 -152 100 -201 178 -140 227 -210 271
-386 242z m73 -87 c1 -17 1 -17 10 -1 14 23 49 12 88 -29 23 -25 38 -33 52
-28 26 8 26 -5 0 -33 -21 -22 -26 -42 -11 -42 5 0 11 7 15 15 6 15 36 21 36 7
0 -4 -6 -14 -12 -21 -11 -11 -9 -13 9 -8 15 3 20 1 17 -8 -3 -7 11 -30 30 -51
20 -22 36 -47 36 -57 0 -14 5 -17 19 -12 25 8 35 -9 16 -28 -8 -9 -15 -20 -15
-26 0 -17 27 -13 34 4 3 8 10 15 16 15 16 0 12 -28 -6 -38 -12 -6 -8 -9 14 -9
20 0 48 -13 81 -38 51 -39 65 -65 35 -65 -9 0 -12 -5 -8 -12 5 -7 15 -2 31 18
20 26 23 27 23 8 0 -11 -9 -30 -20 -42 -23 -24 -10 -31 14 -7 23 24 32 18 61
-39 26 -52 26 -54 10 -80 -14 -21 -15 -29 -5 -41 14 -17 -11 -55 -37 -55 -16
0 -17 16 0 24 6 3 3 5 -8 3 -12 -1 -20 -10 -21 -22 -1 -11 -5 -28 -9 -39 -7
-16 -9 -16 -17 -2 -7 13 -12 13 -27 4 -15 -9 -32 -8 -78 2 -32 8 -70 13 -85
12 -16 -2 -28 1 -28 6 0 5 -18 12 -40 16 -23 3 -43 13 -46 21 -4 10 -14 13
-28 9 -14 -3 -27 1 -35 10 -14 16 -141 22 -141 6 0 -10 -52 -10 -65 1 -12 9
-61 6 -71 -4 -14 -14 7 -26 26 -15 15 10 22 10 32 0 9 -9 8 -12 -9 -12 -12 0
-23 -6 -26 -12 -4 -11 -7 -11 -18 0 -18 16 -59 15 -59 -2 0 -16 -27 -30 -53
-27 -10 1 -25 -3 -33 -10 -12 -10 -18 -9 -31 4 -15 15 -19 14 -45 -5 -25 -17
-38 -19 -84 -13 -30 3 -54 11 -54 16 0 5 5 9 10 9 13 0 13 47 0 55 -5 3 -11
-1 -11 -9 -3 -29 -4 -34 -11 -42 -5 -4 -8 -1 -8 7 0 9 -8 24 -17 35 -13 14
-18 34 -17 74 3 108 3 110 23 110 23 0 71 47 65 64 -5 14 48 41 76 39 18 -2
41 42 33 63 -3 8 -1 14 5 14 6 0 12 -6 15 -12 3 -9 9 -7 19 6 10 12 21 17 32
13 19 -8 64 28 52 40 -4 5 -14 -1 -22 -11 -10 -14 -17 -17 -25 -9 -7 7 -3 18
16 37 31 31 37 32 60 6 10 -11 24 -20 32 -20 11 0 -18 30 -56 57 -2 2 0 13 6
25 10 23 10 23 22 0 6 -12 19 -22 27 -22 14 0 14 2 0 16 -19 19 -20 13 3 60
24 47 76 104 114 123 28 15 52 7 27 -9 -11 -7 -12 -12 -3 -21 15 -15 36 -2 29
18 -3 8 -4 19 0 24 9 15 24 10 24 -8z"/>
<path d="M617 473 c-11 -10 -8 -53 3 -53 6 0 10 14 10 30 0 31 -2 35 -13 23z"/>
<path d="M651 333 c-9 -4 -2 -10 19 -19 42 -18 70 -18 70 0 0 21 -17 29 -24
11 -7 -19 -26 -19 -26 0 0 15 -14 18 -39 8z"/>
</g>
</svg>
